<svg width="28" height="28" viewBox="0 0 28 28" fill="none" xmlns="http://www.w3.org/2000/svg">
<path fill-rule="evenodd" clip-rule="evenodd" d="M6.03334 3.70009C4.6665 5.06692 4.6665 7.26681 4.6665 11.6666V16.3333C4.6665 20.733 4.6665 22.9329 6.03334 24.2998C7.40017 25.6666 9.60006 25.6666 13.9998 25.6666C18.3996 25.6666 20.5995 25.6666 21.9663 24.2998C23.3332 22.9329 23.3332 20.733 23.3332 16.3333V11.6666C23.3332 7.26681 23.3332 5.06692 21.9663 3.70009C20.5995 2.33325 18.3996 2.33325 13.9998 2.33325C9.60006 2.33325 7.40017 2.33325 6.03334 3.70009ZM10.4998 4.95825C10.0166 4.95825 9.62484 5.35 9.62484 5.83325C9.62484 6.3165 10.0166 6.70825 10.4998 6.70825H17.4998C17.9831 6.70825 18.3748 6.3165 18.3748 5.83325C18.3748 5.35 17.9831 4.95825 17.4998 4.95825H10.4998ZM13.9998 22.1666C15.2885 22.1666 16.3332 21.1219 16.3332 19.8333C16.3332 18.5446 15.2885 17.4999 13.9998 17.4999C12.7112 17.4999 11.6665 18.5446 11.6665 19.8333C11.6665 21.1219 12.7112 22.1666 13.9998 22.1666Z" fill="#CE7D63"/>
</svg>
