<svg width="28" height="28" viewBox="0 0 28 28" fill="none" xmlns="http://www.w3.org/2000/svg">
<path d="M4.71952 6.40686L6.40686 4.71952C7.99771 3.12867 8.79313 2.33325 9.78156 2.33325C10.77 2.33325 11.5654 3.12867 13.1562 4.71952L10.344 7.53176L4.71952 13.1562L4.71951 13.1562C3.12867 11.5654 2.33325 10.77 2.33325 9.78156C2.33325 8.79313 3.12867 7.99771 4.71951 6.40687L4.71952 6.40686Z" fill="#CE7D63"/>
<path d="M23.2803 21.593L21.593 23.2803C20.0021 24.8712 19.2067 25.6666 18.2183 25.6666C17.2299 25.6666 16.4344 24.8712 14.8436 23.2803L14.8436 23.2803L20.4681 17.6558L23.2803 14.8436C24.8712 16.4344 25.6666 17.2299 25.6666 18.2183C25.6666 19.2067 24.8712 20.0021 23.2803 21.593Z" fill="#CE7D63"/>
<path d="M11.9188 22.4875C12.29 22.198 12.6267 21.8613 13.3 21.188L21.9285 12.5595C20.7542 12.0707 19.3633 11.2678 18.0478 9.95238C16.7322 8.63673 15.9293 7.2456 15.4405 6.07114L6.81188 14.6998L6.81181 14.6999C6.13852 15.3732 5.80183 15.7098 5.5123 16.0811C5.17074 16.519 4.87791 16.9928 4.63898 17.4941C4.43644 17.9191 4.28587 18.3708 3.98474 19.2742L2.39678 24.0381C2.24858 24.4827 2.36429 24.9728 2.69565 25.3042C3.02702 25.6355 3.51716 25.7513 3.96173 25.6031L8.72563 24.0151C9.62902 23.714 10.0807 23.5634 10.5057 23.3609C11.0071 23.1219 11.4809 22.8291 11.9188 22.4875Z" fill="#CE7D63"/>
<path d="M24.3228 10.1651C26.1145 8.37349 26.1145 5.46865 24.3228 3.67699C22.5312 1.88534 19.6263 1.88534 17.8347 3.67699L16.7998 4.71187C16.814 4.75466 16.8287 4.79805 16.8439 4.842C17.2232 5.93533 17.9389 7.36859 19.2853 8.71494C20.6316 10.0613 22.0649 10.777 23.1582 11.1563C23.202 11.1715 23.2452 11.1861 23.2878 11.2002L24.3228 10.1651Z" fill="#CE7D63"/>
</svg>
