<svg width="28" height="28" viewBox="0 0 28 28" fill="none" xmlns="http://www.w3.org/2000/svg">
<path fill-rule="evenodd" clip-rule="evenodd" d="M25.6666 14C25.6666 20.4434 20.4432 25.6667 13.9999 25.6667C7.5566 25.6667 2.33325 20.4434 2.33325 14C2.33325 7.55672 7.5566 2.33337 13.9999 2.33337C20.4432 2.33337 25.6666 7.55672 25.6666 14ZM15.736 7.52027C16.2028 7.64534 16.4798 8.12514 16.3547 8.59192L13.3352 19.8611C13.2101 20.3278 12.7303 20.6048 12.2635 20.4798C11.7967 20.3547 11.5197 19.8749 11.6448 19.4081L14.6643 8.13899C14.7894 7.6722 15.2692 7.39519 15.736 7.52027ZM17.4645 9.88133C17.8062 9.53962 18.3603 9.53962 18.702 9.88133L18.945 10.1244C19.6863 10.8656 20.3044 11.4836 20.7291 12.0403C21.1773 12.6278 21.4918 13.2486 21.4918 14C21.4918 14.7515 21.1773 15.3723 20.7291 15.9598C20.3044 16.5165 19.6863 17.1345 18.9451 17.8757L18.702 18.1188C18.3603 18.4605 17.8062 18.4605 17.4645 18.1188C17.1228 17.7771 17.1228 17.223 17.4645 16.8813L17.6647 16.6812C18.46 15.8859 18.9929 15.3504 19.3378 14.8983C19.6673 14.4664 19.7418 14.2151 19.7418 14C19.7418 13.785 19.6673 13.5337 19.3378 13.1018C18.9929 12.6497 18.46 12.1142 17.6647 11.3189L17.4645 11.1188C17.1228 10.7771 17.1228 10.223 17.4645 9.88133ZM9.29808 9.88133C9.63979 9.53962 10.1938 9.53962 10.5355 9.88133C10.8772 10.223 10.8772 10.7771 10.5355 11.1188L10.3354 11.3189C9.54009 12.1142 9.00719 12.6497 8.66228 13.1018C8.33277 13.5337 8.2583 13.785 8.2583 14C8.2583 14.2151 8.33277 14.4664 8.66228 14.8983C9.00719 15.3504 9.54009 15.8859 10.3354 16.6812L10.5355 16.8813C10.8772 17.223 10.8772 17.7771 10.5355 18.1188C10.1938 18.4605 9.63979 18.4605 9.29808 18.1188L9.05502 17.8757C8.31378 17.1345 7.69569 16.5165 7.27099 15.9598C6.82272 15.3723 6.5083 14.7515 6.5083 14C6.5083 13.2486 6.82272 12.6278 7.27099 12.0403C7.69569 11.4836 8.31379 10.8656 9.05502 10.1244L9.29808 9.88133Z" fill="#CE7D63"/>
</svg>
