<svg width="28" height="28" viewBox="0 0 28 28" fill="none" xmlns="http://www.w3.org/2000/svg">
<path d="M2.3335 7.58337C2.3335 4.68388 4.684 2.33337 7.5835 2.33337C10.483 2.33337 12.8335 4.68388 12.8335 7.58337V11.0834C12.8335 11.4902 12.8335 11.6937 12.7888 11.8606C12.6674 12.3135 12.3136 12.6673 11.8607 12.7887C11.6938 12.8334 11.4904 12.8334 11.0835 12.8334H7.5835C4.684 12.8334 2.3335 10.4829 2.3335 7.58337Z" fill="#CE7D63"/>
<path d="M15.1668 16.9167C15.1668 16.5098 15.1668 16.3064 15.2116 16.1395C15.3329 15.6866 15.6867 15.3328 16.1396 15.2114C16.3065 15.1667 16.51 15.1667 16.9168 15.1667H20.4168C23.3163 15.1667 25.6668 17.5172 25.6668 20.4167C25.6668 23.3162 23.3163 25.6667 20.4168 25.6667C17.5173 25.6667 15.1668 23.3162 15.1668 20.4167V16.9167Z" fill="#CE7D63"/>
<path d="M2.3335 20.4167C2.3335 17.5172 4.684 15.1667 7.5835 15.1667H10.7335C11.4686 15.1667 11.8361 15.1667 12.1169 15.3098C12.3638 15.4356 12.5646 15.6364 12.6904 15.8833C12.8335 16.1641 12.8335 16.5316 12.8335 17.2667V20.4167C12.8335 23.3162 10.483 25.6667 7.5835 25.6667C4.684 25.6667 2.3335 23.3162 2.3335 20.4167Z" fill="#CE7D63"/>
<path d="M15.1668 7.58337C15.1668 4.68388 17.5173 2.33337 20.4168 2.33337C23.3163 2.33337 25.6668 4.68388 25.6668 7.58337C25.6668 10.4829 23.3163 12.8334 20.4168 12.8334H16.6668C16.4927 12.8334 16.4056 12.8334 16.3324 12.8251C15.7239 12.7566 15.2436 12.2763 15.1751 11.6678C15.1668 11.5946 15.1668 11.5075 15.1668 11.3334V7.58337Z" fill="#CE7D63"/>
</svg>
