<svg width="28" height="28" viewBox="0 0 28 28" fill="none" xmlns="http://www.w3.org/2000/svg">
<path d="M15.2081 4.26024L14.5395 4.65617C13.8052 5.09106 13.438 5.3085 13.0335 5.35916C12.629 5.40982 12.233 5.28797 11.441 5.04425L10.72 4.82236C7.93284 3.9647 6.53928 3.53588 5.70161 4.30257C4.86393 5.06927 5.13691 6.52373 5.68286 9.43265L5.8241 10.1852C5.97924 11.0118 6.05681 11.4252 5.9648 11.8289C5.87278 12.2327 5.62159 12.5812 5.11922 13.2783L4.66185 13.9129C2.89398 16.3658 2.01005 17.5922 2.44128 18.609C2.87252 19.6258 4.33333 19.7595 7.25495 20.0269L8.01083 20.0961C8.84105 20.1721 9.25619 20.2101 9.6038 20.409C9.95142 20.6078 10.1922 20.9451 10.6737 21.6196L11.1121 22.2337C12.8066 24.6073 13.6539 25.7942 14.7581 25.6559C15.8623 25.5176 16.4921 24.1457 17.7518 21.4021L18.0777 20.6923C18.2607 20.2938 18.3969 19.9972 18.5273 19.7649L23.8812 25.1188C24.2229 25.4605 24.7769 25.4605 25.1186 25.1188C25.4603 24.777 25.4603 24.223 25.1186 23.8813L19.9482 18.7109C20.0906 18.6591 20.2495 18.6035 20.4284 18.5408L21.1567 18.2858C23.9718 17.2998 25.3794 16.8069 25.6306 15.7046C25.8818 14.6024 24.8102 13.6209 22.6672 11.6578L22.1127 11.1499C21.5037 10.5921 21.1992 10.3131 21.0413 9.94066C20.8833 9.5682 20.8897 9.14437 20.9026 8.29673L20.9143 7.52496C20.9597 4.54199 20.9823 3.0505 20.0334 2.50757C19.0844 1.96465 17.7923 2.72985 15.2081 4.26024Z" fill="#CE7D63"/>
</svg>
