<svg width="28" height="28" viewBox="0 0 28 28" fill="none" xmlns="http://www.w3.org/2000/svg">
<path fill-rule="evenodd" clip-rule="evenodd" d="M22.7497 11.1539C22.7887 15.9863 18.7617 20.4556 13.9294 20.4166C9.09706 20.3777 5.28929 15.845 5.25029 11.0127C5.2113 6.18038 9.09706 2.29461 13.9294 2.3336C18.7617 2.3726 22.7107 6.32159 22.7497 11.1539ZM14.5904 6.12501C14.1072 6.12111 13.7123 6.50969 13.7084 6.99292C13.7045 7.47615 14.093 7.87105 14.5763 7.87495C16.0161 7.88657 17.1967 9.06725 17.2084 10.507C17.2123 10.9903 17.6072 11.3789 18.0904 11.375C18.5736 11.3711 18.9622 10.9762 18.9583 10.4929C18.939 8.09767 16.9856 6.14434 14.5904 6.12501Z" fill="#CE7D63"/>
<path d="M16.5281 21.2501C16.9157 22.4895 16.1125 23.7371 14.875 23.9885V25.6665C14.875 26.1497 14.4833 26.5415 14 26.5415C13.5168 26.5415 13.125 26.1497 13.125 25.6665V23.9885C11.8876 23.7371 11.0844 22.4895 11.4719 21.2501L11.48 21.2252C12.255 21.4512 13.0716 21.5762 13.92 21.5831C14.8195 21.5903 15.6908 21.4635 16.5194 21.2227C16.5224 21.2319 16.5253 21.241 16.5281 21.2501Z" fill="#CE7D63"/>
</svg>
