<svg width="26" height="22" viewBox="0 0 26 22" fill="none" xmlns="http://www.w3.org/2000/svg">
<path d="M25.624 3.02266C24.7999 3.3773 23.9336 3.62426 23.0464 3.75742C23.4612 3.68631 24.0715 2.9397 24.3144 2.6375C24.6835 2.18166 24.9648 1.66128 25.144 1.1028C25.144 1.06132 25.1855 1.00207 25.144 0.97244C25.1231 0.96103 25.0997 0.955051 25.0759 0.955051C25.0521 0.955051 25.0286 0.96103 25.0077 0.97244C24.0444 1.49413 23.0191 1.8923 21.9561 2.15754C21.9191 2.16885 21.8796 2.16987 21.842 2.16048C21.8045 2.15108 21.7701 2.13163 21.7428 2.10421C21.66 2.00568 21.571 1.91265 21.4761 1.82571C21.0426 1.43726 20.5507 1.11934 20.0185 0.883558C19.3 0.588811 18.524 0.461162 17.749 0.510252C16.997 0.557744 16.2628 0.759441 15.5921 1.1028C14.9317 1.4648 14.3512 1.95659 13.8856 2.54862C13.3958 3.15797 13.0423 3.86513 12.8486 4.62254C12.689 5.34299 12.6709 6.08761 12.7953 6.81497C12.7953 6.9394 12.7953 6.95718 12.6886 6.9394C8.46377 6.31723 4.99736 4.81808 2.16498 1.60054C2.04055 1.45833 1.97537 1.45833 1.87463 1.60054C0.642134 3.47299 1.24061 6.43574 2.78123 7.89933C2.98863 8.09487 3.20194 8.28449 3.42711 8.46225C2.72074 8.41211 2.03163 8.22068 1.4006 7.89933C1.28209 7.8223 1.21691 7.86378 1.21098 8.00599C1.19418 8.20315 1.19418 8.40138 1.21098 8.59854C1.33462 9.54341 1.70699 10.4385 2.29001 11.1923C2.87303 11.946 3.64579 12.5314 4.52925 12.8886C4.74462 12.9808 4.96903 13.0503 5.19883 13.096C4.54491 13.2247 3.87423 13.2447 3.21379 13.1552C3.07158 13.1256 3.01825 13.2026 3.07158 13.3389C3.94263 15.7091 5.83286 16.432 7.21942 16.835C7.40904 16.8646 7.59865 16.8646 7.81197 16.912C7.81197 16.912 7.81197 16.912 7.77642 16.9475C7.36756 17.6942 5.71435 18.1978 4.95589 18.4585C3.5715 18.9558 2.09548 19.1459 0.630283 19.0155C0.399189 18.98 0.345859 18.9859 0.286605 19.0155C0.22735 19.0452 0.286605 19.1103 0.351785 19.1696C0.648059 19.3651 0.944333 19.537 1.25246 19.7029C2.16975 20.2032 3.13951 20.6007 4.14409 20.888C9.34667 22.322 15.201 21.2672 19.1059 17.386C22.1753 14.3403 23.2538 10.1392 23.2538 5.93207C23.2538 5.77208 23.4493 5.67727 23.5619 5.59432C24.3384 4.98926 25.0231 4.27471 25.5943 3.47299C25.6933 3.35349 25.744 3.20133 25.7366 3.04636C25.7366 2.95748 25.7366 2.97525 25.624 3.02266Z" fill="#CE7D63"/>
</svg>
