<svg width="40" height="40" viewBox="0 0 40 40" fill="none" xmlns="http://www.w3.org/2000/svg">
<path fill-rule="evenodd" clip-rule="evenodd" d="M13.75 6.25L32.5 6.25C32.8315 6.25 33.1495 6.3817 33.3839 6.61612C33.6183 6.85054 33.75 7.16848 33.75 7.5V26.25C33.75 26.9404 33.1904 27.5 32.5 27.5C31.8096 27.5 31.25 26.9404 31.25 26.25V10.5178L8.38388 33.3839C7.89573 33.872 7.10427 33.872 6.61612 33.3839C6.12796 32.8957 6.12796 32.1043 6.61612 31.6161L29.4822 8.75L13.75 8.75C13.0596 8.75 12.5 8.19036 12.5 7.5C12.5 6.80964 13.0596 6.25 13.75 6.25Z" fill="#0F0F0F"/>
</svg>
