<svg width="20" height="20" viewBox="0 0 20 20" fill="none" xmlns="http://www.w3.org/2000/svg">
<path d="M15.8335 9.16668H10.8335V4.16668C10.8335 3.94566 10.7457 3.7337 10.5894 3.57742C10.4331 3.42114 10.2212 3.33334 10.0002 3.33334C9.77915 3.33334 9.56719 3.42114 9.41091 3.57742C9.25463 3.7337 9.16683 3.94566 9.16683 4.16668V9.16668H4.16683C3.94582 9.16668 3.73385 9.25447 3.57757 9.41075C3.42129 9.56703 3.3335 9.779 3.3335 10C3.3335 10.221 3.42129 10.433 3.57757 10.5893C3.73385 10.7455 3.94582 10.8333 4.16683 10.8333H9.16683V15.8333C9.16683 16.0544 9.25463 16.2663 9.41091 16.4226C9.56719 16.5789 9.77915 16.6667 10.0002 16.6667C10.2212 16.6667 10.4331 16.5789 10.5894 16.4226C10.7457 16.2663 10.8335 16.0544 10.8335 15.8333V10.8333H15.8335C16.0545 10.8333 16.2665 10.7455 16.4228 10.5893C16.579 10.433 16.6668 10.221 16.6668 10C16.6668 9.779 16.579 9.56703 16.4228 9.41075C16.2665 9.25447 16.0545 9.16668 15.8335 9.16668Z" fill="#E7BEB1"/>
</svg>
