<svg width="98" height="19" viewBox="0 0 98 19" fill="none" xmlns="http://www.w3.org/2000/svg">
<path d="M97.2803 18.5H94.8075V7.60464H87.9163V18.5H85.4561V5.13184H87.9163V7.49167C87.933 7.16531 88.0084 6.85987 88.1422 6.57535C88.2761 6.28246 88.4519 6.03142 88.6694 5.82221C88.8954 5.60464 89.1548 5.43728 89.4477 5.32012C89.7406 5.1946 90.0544 5.13184 90.3891 5.13184H94.8075C95.1506 5.13184 95.4728 5.19878 95.774 5.33267C96.0753 5.4582 96.3347 5.63393 96.5523 5.85987C96.7782 6.07744 96.954 6.33686 97.0795 6.63811C97.2134 6.93937 97.2803 7.26154 97.2803 7.60464V18.5Z" fill="#F3DFD8"/>
<path d="M81.3262 13.0774H72.4769V16.0272H81.3262V18.5H72.4769C72.1421 18.5 71.8241 18.4373 71.5229 18.3118C71.2216 18.1779 70.958 18.0021 70.7321 17.7846C70.5145 17.5586 70.3388 17.295 70.2049 16.9938C70.0794 16.6925 70.0166 16.3703 70.0166 16.0272V7.60464C70.0166 7.26154 70.0794 6.93937 70.2049 6.63811C70.3388 6.33686 70.5145 6.07744 70.7321 5.85987C70.958 5.63393 71.2216 5.4582 71.5229 5.33267C71.8241 5.19878 72.1421 5.13184 72.4769 5.13184H78.8534C79.1965 5.13184 79.5187 5.19878 79.8199 5.33267C80.1212 5.4582 80.3806 5.63393 80.5982 5.85987C80.8241 6.07744 80.9999 6.33686 81.1254 6.63811C81.2593 6.93937 81.3262 7.26154 81.3262 7.60464V13.0774ZM72.4769 7.60464V10.6046H78.8534V7.60464H72.4769Z" fill="#F3DFD8"/>
<path d="M50.7366 3.07322C50.7366 2.72176 50.8035 2.39121 50.9374 2.08159C51.0713 1.7636 51.2554 1.49163 51.4897 1.26569C51.724 1.03138 51.996 0.84728 52.3056 0.713389C52.6236 0.57113 52.9583 0.5 53.3098 0.5H63.0755C63.4269 0.5 63.7575 0.57113 64.0671 0.713389C64.3851 0.84728 64.6613 1.03138 64.8956 1.26569C65.1299 1.49163 65.314 1.7636 65.4479 2.08159C65.5818 2.39121 65.6487 2.72176 65.6487 3.07322V5.3954H63.0755V3.07322H53.3098V15.9268H63.0755V11.5586H58.1926V8.98536H65.6487V15.9268C65.6487 16.2782 65.5818 16.613 65.4479 16.931C65.314 17.2406 65.1299 17.5126 64.8956 17.7469C64.6613 17.9812 64.3851 18.1653 64.0671 18.2992C63.7575 18.4331 63.4269 18.5 63.0755 18.5H53.3098C52.9583 18.5 52.6236 18.4331 52.3056 18.2992C51.996 18.1653 51.724 17.9812 51.4897 17.7469C51.2554 17.5126 51.0713 17.2406 50.9374 16.931C50.8035 16.613 50.7366 16.2782 50.7366 15.9268V3.07322Z" fill="#F3DFD8"/>
<path d="M47.4229 5.13184L42.5651 11.659L47.6488 18.5H44.6614L41.0714 13.6674L37.4689 18.5H34.4814L39.5777 11.659L34.7199 5.13184H37.6948L41.0714 9.65066L44.4354 5.13184H47.4229Z" fill="#F3DFD8"/>
<path d="M31.6446 13.0774H22.7952V16.0272H31.6446V18.5H22.7952C22.4605 18.5 22.1425 18.4373 21.8412 18.3118C21.54 18.1779 21.2764 18.0021 21.0504 17.7846C20.8329 17.5586 20.6571 17.295 20.5232 16.9938C20.3977 16.6925 20.335 16.3703 20.335 16.0272V7.60464C20.335 7.26154 20.3977 6.93937 20.5232 6.63811C20.6571 6.33686 20.8329 6.07744 21.0504 5.85987C21.2764 5.63393 21.54 5.4582 21.8412 5.33267C22.1425 5.19878 22.4605 5.13184 22.7952 5.13184H29.1718C29.5149 5.13184 29.8371 5.19878 30.1383 5.33267C30.4396 5.4582 30.699 5.63393 30.9165 5.85987C31.1425 6.07744 31.3182 6.33686 31.4437 6.63811C31.5776 6.93937 31.6446 7.26154 31.6446 7.60464V13.0774ZM22.7952 7.60464V10.6046H29.1718V7.60464H22.7952Z" fill="#F3DFD8"/>
<path d="M2.57322 18.5H0V0.5H2.57322L13.3933 14.4582V0.5H15.9665V18.5H13.3933L2.57322 4.54184V18.5Z" fill="#F3DFD8"/>
</svg>
